<svg xmlns="http://www.w3.org/2000/svg" viewBox="0 0 100 100" fill="none">
  <defs>
    <linearGradient id="g" x1="0" y1="0" x2="1" y2="1">
      <stop offset="0%" stop-color="#8B5CF6"/>
      <stop offset="100%" stop-color="#06B6D4"/>
    </linearGradient>
    <filter id="gl"><feGaussianBlur stdDeviation="4"/><feMerge><feMergeNode/><feMergeNode in="SourceGraphic"/></feMerge></filter>
  </defs>
  <rect x="8" y="8" width="84" height="84" rx="8" fill="none" stroke="url(#g)" stroke-width="3" opacity=".3"/>
  <rect x="18" y="18" width="64" height="64" rx="6" fill="url(#g)" fill-opacity=".08" stroke="url(#g)" stroke-width="2" opacity=".55"/>
  <rect x="30" y="30" width="40" height="40" rx="6" fill="url(#g)" fill-opacity=".3" filter="url(#gl)"/>
  <rect x="30" y="30" width="40" height="40" rx="6" fill="url(#g)" fill-opacity=".5"/>
  <circle cx="50" cy="50" r="6" fill="#fff" opacity=".9"/>
  <circle cx="50" cy="50" r="4" fill="#fff"/>
  <!-- Pins top -->
  <rect x="22" y="3" width="6" height="5" rx="1.5" fill="#8B5CF6" opacity=".4"/>
  <rect x="34" y="3" width="6" height="5" rx="1.5" fill="#06B6D4" opacity=".7"/>
  <rect x="46" y="3" width="8" height="5" rx="1.5" fill="#06B6D4" opacity=".85"/>
  <rect x="60" y="3" width="6" height="5" rx="1.5" fill="#8B5CF6" opacity=".5"/>
  <rect x="72" y="3" width="6" height="5" rx="1.5" fill="#8B5CF6" opacity=".3"/>
  <!-- Pins bottom -->
  <rect x="22" y="92" width="6" height="5" rx="1.5" fill="#8B5CF6" opacity=".4"/>
  <rect x="34" y="92" width="6" height="5" rx="1.5" fill="#06B6D4" opacity=".7"/>
  <rect x="46" y="92" width="8" height="5" rx="1.5" fill="#06B6D4" opacity=".85"/>
  <rect x="60" y="92" width="6" height="5" rx="1.5" fill="#8B5CF6" opacity=".5"/>
  <rect x="72" y="92" width="6" height="5" rx="1.5" fill="#8B5CF6" opacity=".3"/>
  <!-- Pins left -->
  <rect x="3" y="22" width="5" height="6" rx="1.5" fill="#8B5CF6" opacity=".4"/>
  <rect x="3" y="34" width="5" height="6" rx="1.5" fill="#06B6D4" opacity=".7"/>
  <rect x="3" y="46" width="5" height="8" rx="1.5" fill="#06B6D4" opacity=".85"/>
  <rect x="3" y="60" width="5" height="6" rx="1.5" fill="#8B5CF6" opacity=".5"/>
  <rect x="3" y="72" width="5" height="6" rx="1.5" fill="#8B5CF6" opacity=".3"/>
  <!-- Pins right -->
  <rect x="92" y="22" width="5" height="6" rx="1.5" fill="#8B5CF6" opacity=".4"/>
  <rect x="92" y="34" width="5" height="6" rx="1.5" fill="#06B6D4" opacity=".7"/>
  <rect x="92" y="46" width="5" height="8" rx="1.5" fill="#06B6D4" opacity=".85"/>
  <rect x="92" y="60" width="5" height="6" rx="1.5" fill="#8B5CF6" opacity=".5"/>
  <rect x="92" y="72" width="5" height="6" rx="1.5" fill="#8B5CF6" opacity=".3"/>
</svg>
