<?xml version="1.0" encoding="UTF-8" standalone="no"?>
<svg viewBox="0 0 400 400" fill="none" version="1.1" xmlns="http://www.w3.org/2000/svg">
  <defs>
    <linearGradient id="gM" x1="0%" y1="0%" x2="100%" y2="100%">
      <stop offset="0%" stop-color="#8B5CF6"/>
      <stop offset="30%" stop-color="#9D71F8"/>
      <stop offset="100%" stop-color="#06B6D4"/>
    </linearGradient>
    <linearGradient id="gT" x1="63.614791" y1="590.60474" x2="130.73263" y2="590.60474" gradientTransform="matrix(2.0754064,0,0,0.48662444,-2.661811,3.5032095)" gradientUnits="userSpaceOnUse">
      <stop offset="0%" stop-color="#8B5CF6"/>
      <stop offset="100%" stop-color="#06B6D4"/>
    </linearGradient>
    <linearGradient id="gD" x1="-41" y1="-41" x2="41" y2="41" gradientUnits="userSpaceOnUse">
      <stop offset="0%" stop-color="#8B5CF6" stop-opacity=".4"/>
      <stop offset="100%" stop-color="#06B6D4" stop-opacity=".25"/>
    </linearGradient>
    <linearGradient id="gB" x1="72.243576" y1="711.50175" x2="113.11225" y2="711.50175" gradientTransform="matrix(2.1842536,0,0,0.46730249,-4.4710248,3.503418)" gradientUnits="userSpaceOnUse">
      <stop offset="0%" stop-color="#06B6D4"/>
      <stop offset="100%" stop-color="#22D3EE"/>
    </linearGradient>
    <filter id="gl" x="-0.66666667" y="-0.66666667" width="2.3333333" height="2.3333333">
      <feGaussianBlur stdDeviation="2.5" result="b"/>
      <feMerge>
        <feMergeNode in="b"/>
        <feMergeNode in="SourceGraphic"/>
      </feMerge>
    </filter>
    <filter id="glS" x="-0.3" y="-0.3" width="1.6" height="1.6">
      <feGaussianBlur stdDeviation="4" result="b"/>
      <feMerge>
        <feMergeNode in="b"/>
        <feMergeNode in="SourceGraphic"/>
      </feMerge>
    </filter>
    <filter id="glow" x="-0.046938776" y="-0.046938776" width="1.0938776" height="1.0938776">
      <feGaussianBlur stdDeviation="6" result="b"/>
      <feMerge>
        <feMergeNode in="b"/>
        <feMergeNode in="SourceGraphic"/>
      </feMerge>
    </filter>
    <linearGradient id="bgG" x1="0%" y1="0%" x2="100%" y2="100%">
      <stop offset="0%" stop-color="#2D1B4E"/>
      <stop offset="50%" stop-color="#1E1A3E"/>
      <stop offset="100%" stop-color="#153048"/>
    </linearGradient>
  </defs>
  <circle cx="200" cy="200" r="196" fill="none" stroke="url(#gM)" stroke-width="8" opacity=".3" filter="url(#glow)"/>
  <circle cx="200" cy="200" fill="url(#bgG)" stroke="url(#gM)" stroke-width="4" r="192"/>
  <circle cx="200" cy="200" r="186" fill="none" stroke="url(#gM)" stroke-width=".8" opacity=".4"/>
  <g transform="matrix(2.5,0,0,2.5,200,200)">
    <g transform="translate(-60,-60)">
      <rect x="24" y="24" width="72" height="72" rx="6" fill="none" stroke="url(#gM)" stroke-width="3" opacity=".75"/>
      <rect x="34" y="34" width="52" height="52" rx="4" fill="url(#gM)" fill-opacity=".35" stroke="url(#gM)" stroke-width="1.5" opacity=".85"/>
      <rect x="44" y="44" width="32" height="32" rx="4" fill="url(#gM)" fill-opacity=".55" filter="url(#glS)"/>
      <rect x="44" y="44" width="32" height="32" rx="4" fill="url(#gM)" fill-opacity=".75"/>

      <rect x="30" y="12" width="5" height="6" rx="1.5" fill="#8B5CF6" opacity=".55"/>
      <rect x="41" y="12" width="5" height="6" rx="1.5" fill="#06B6D4" opacity=".75"/>
      <rect x="52" y="12" width="5" height="6" rx="1.5" fill="#06B6D4" opacity=".75"/>
      <rect x="63" y="12" width="5" height="6" rx="1.5" fill="#06B6D4" opacity=".75"/>
      <rect x="74" y="12" width="5" height="6" rx="1.5" fill="#8B5CF6" opacity=".75"/>
      <rect x="85" y="12" width="5" height="6" rx="1.5" fill="#8B5CF6" opacity=".55"/>
      <rect x="30" y="102" width="5" height="6" rx="1.5" fill="#8B5CF6" opacity=".55"/>
      <rect x="41" y="102" width="5" height="6" rx="1.5" fill="#06B6D4" opacity=".75"/>
      <rect x="52" y="102" width="5" height="6" rx="1.5" fill="#06B6D4" opacity=".75"/>
      <rect x="63" y="102" width="5" height="6" rx="1.5" fill="#06B6D4" opacity=".75"/>
      <rect x="74" y="102" width="5" height="6" rx="1.5" fill="#8B5CF6" opacity=".75"/>
      <rect x="85" y="102" width="5" height="6" rx="1.5" fill="#8B5CF6" opacity=".55"/>
      <rect x="12" y="30" width="6" height="5" rx="1.5" fill="#8B5CF6" opacity=".55"/>
      <rect x="12" y="41" width="6" height="5" rx="1.5" fill="#06B6D4" opacity=".75"/>
      <rect x="12" y="52" width="6" height="5" rx="1.5" fill="#06B6D4" opacity=".75"/>
      <rect x="12" y="63" width="6" height="5" rx="1.5" fill="#06B6D4" opacity=".75"/>
      <rect x="12" y="74" width="6" height="5" rx="1.5" fill="#8B5CF6" opacity=".75"/>
      <rect x="12" y="85" width="6" height="5" rx="1.5" fill="#8B5CF6" opacity=".55"/>
      <rect x="102" y="30" width="6" height="5" rx="1.5" fill="#8B5CF6" opacity=".55"/>
      <rect x="102" y="41" width="6" height="5" rx="1.5" fill="#06B6D4" opacity=".75"/>
      <rect x="102" y="52" width="6" height="5" rx="1.5" fill="#06B6D4" opacity=".75"/>
      <rect x="102" y="63" width="6" height="5" rx="1.5" fill="#06B6D4" opacity=".75"/>
      <rect x="102" y="74" width="6" height="5" rx="1.5" fill="#8B5CF6" opacity=".75"/>
      <rect x="102" y="85" width="6" height="5" rx="1.5" fill="#8B5CF6" opacity=".55"/>
      <text x="60" y="59.503418" text-anchor="middle" font-family="Inter, 'Segoe UI', sans-serif" font-size="7px" font-weight="900" letter-spacing="-0.3" fill="#FFFFFF" style="fill:#FFFFFF">NÚCLEO</text>
      <text x="60" y="67.503418" text-anchor="middle" font-family="Inter, 'Segoe UI', sans-serif" font-size="5.5px" font-weight="900" letter-spacing="0" fill="#67E8F9" style="fill:#67E8F9">BYTE</text>
    </g>
  </g>
</svg>
